<?xml version="1.0" encoding="utf-8"?>
<svg version="1.0" width="256.000000px" height="256.000000px" viewBox="0 0 256.000000 256.000000" preserveAspectRatio="xMidYMid meet" xmlns="http://www.w3.org/2000/svg">
  <g transform="matrix(0.079864, 0.060182, 0.060182, -0.079864, -51.178455, 153.186066)" fill="#000000" stroke="none">
    <path d="M1288 2500 l-48 -29 -42 24 c-48 27 -76 32 -83 13 -3 -7 -11 -56 -18 -108 -13 -94 -13 -96 15 -179 15 -46 34 -91 41 -100 11 -13 14 -74 13 -301 l-1 -285 -32 -3 c-22 -2 -33 1 -33 10 0 7 -9 88 -20 179 -18 146 -18 170 -6 194 8 15 19 64 26 109 9 69 8 94 -7 175 -23 119 -32 126 -100 77 l-51 -36 -43 20 c-53 24 -75 25 -83 4 -3 -9 -6 -60 -6 -114 0 -92 3 -105 35 -177 20 -43 42 -83 51 -89 10 -8 20 -60 34 -175 11 -90 20 -167 20 -171 0 -4 -12 -8 -27 -10 l-28 -3 -3 -695 c-2 -658 -1 -697 16 -729 36 -67 56 -71 337 -71 230 0 253 2 282 20 37 22 63 66 67 117 3 26 19 54 64 108 115 138 116 145 127 671 l6 320 -66 87 c-37 48 -73 87 -80 87 -7 0 -18 -7 -25 -15 -21 -25 -27 -17 -27 34 0 61 -7 71 -44 71 -16 0 -29 3 -29 8 3 53 32 208 40 210 6 2 29 42 50 89 36 77 40 96 46 194 8 128 4 134 -77 100 -55 -22 -55 -22 -112 23 -33 26 -39 28 -52 15 -9 -8 -27 -57 -42 -108 -25 -89 -26 -97 -14 -170 7 -42 19 -89 26 -104 12 -25 12 -45 -2 -143 -15 -106 -18 -114 -38 -114 -21 0 -23 6 -28 73 -3 39 -6 164 -6 276 0 177 3 210 19 245 48 107 61 175 54 281 -9 137 -16 144 -96 95z m-83 -77 c33 -16 37 -16 71 1 20 9 38 16 39 14 1 -2 5 -24 8 -50 l7 -48 -33 0 c-17 -1 -59 -3 -91 -7 l-59 -6 6 39 c4 22 7 47 7 57 0 21 1 21 45 0z m107 -149 c4 -3 -1 -25 -9 -50 l-15 -44 -49 0 c-52 0 -52 0 -73 67 -6 20 -3 22 36 26 79 7 105 7 110 1z m-275 -104 c6 -28 7 -52 4 -54 -3 -2 -37 -7 -75 -11 -38 -4 -75 -9 -83 -12 -10 -4 -13 9 -13 52 0 55 1 57 23 50 55 -17 67 -17 94 4 15 11 31 21 34 21 4 0 11 -23 16 -50z m218 -346 c0 -250 -2 -289 -15 -289 -13 0 -15 39 -16 285 0 157 1 289 4 293 2 4 9 6 15 4 9 -3 12 -83 12 -293z m225 245 c28 -21 40 -22 98 -4 19 6 22 4 22 -18 0 -13 -3 -38 -6 -54 l-6 -29 -81 10 c-45 5 -84 10 -86 12 -4 4 20 104 25 104 3 0 18 -10 34 -21z m-444 -61 c-9 -52 -10 -54 -63 -63 -41 -6 -42 -6 -62 34 -12 22 -21 45 -21 50 0 9 36 15 119 19 l34 2 -7 -42z m533 -104 c3 -2 -5 -25 -17 -49 -22 -45 -22 -45 -64 -39 -52 8 -53 8 -66 63 l-11 44 77 -7 c42 -4 79 -9 81 -12z m-569 -21 c0 -5 9 -82 20 -173 24 -197 23 -180 5 -180 -8 0 -15 3 -15 8 0 4 -9 81 -20 172 -24 198 -23 180 -5 180 8 0 15 -3 15 -7z m487 -155 c-4 -18 -11 -70 -18 -115 -8 -59 -15 -83 -25 -83 -17 0 -17 2 1 120 8 52 15 98 15 103 0 4 7 7 16 7 13 0 15 -7 11 -32z m48 -328 l0 -65 -165 -5 -165 -5 0 -25 0 -25 162 -3 162 -2 5 -53 c3 -28 5 -282 3 -564 l-2 -511 -24 -26 -24 -26 -244 0 -244 0 -24 25 -25 24 0 565 0 565 53 3 c48 3 52 5 52 28 0 23 -4 25 -52 28 l-53 3 0 70 0 69 293 -2 292 -3 0 -65z m153 -96 c18 -23 32 -47 32 -53 0 -16 -113 -241 -122 -241 -4 0 -6 67 -4 150 2 142 3 151 26 175 13 14 27 22 30 18 4 -5 21 -27 38 -49z m32 -517 c-7 -242 -13 -325 -25 -352 -14 -36 -85 -134 -96 -135 -3 0 -5 127 -5 283 l2 282 62 124 c35 68 65 121 67 119 2 -2 0 -146 -5 -321z"/>
    <path d="M1047 943 c-4 -3 -7 -111 -7 -239 l0 -232 28 -53 c22 -43 38 -59 82 -82 47 -25 63 -28 109 -23 68 6 127 45 159 104 23 41 24 51 25 276 0 128 -3 238 -7 244 -8 13 -377 18 -389 5z m337 -113 l-1 -55 -142 -3 -141 -3 0 61 0 61 143 -3 142 -3 -1 -55z m-1 -243 c-3 -135 -13 -162 -76 -197 -69 -39 -152 -13 -189 61 -14 26 -18 59 -18 147 l0 113 143 -3 142 -3 -2 -118z"/>
    <path d="M774 1066 c-3 -8 -4 -25 -2 -38 2 -17 9 -23 28 -23 22 0 25 4 25 35 0 29 -4 36 -23 38 -13 2 -24 -3 -28 -12z"/>
    <path d="M781 936 c-8 -9 -11 -47 -9 -107 3 -93 3 -94 28 -94 25 0 25 1 28 94 3 87 -5 121 -28 121 -4 0 -13 -6 -19 -14z"/>
    <path d="M782 668 c-8 -8 -12 -66 -12 -194 0 -149 3 -184 15 -194 12 -10 18 -10 30 0 12 10 15 45 15 194 0 173 -5 206 -30 206 -3 0 -11 -5 -18 -12z"/>
  </g>
</svg>